<svg xmlns="http://www.w3.org/2000/svg" width="1200" height="630" viewBox="0 0 1200 630">
  <defs>
    <linearGradient id="bg" x1="0%" y1="0%" x2="100%" y2="100%">
      <stop offset="0%" style="stop-color:#1a1a2e"/>
      <stop offset="100%" style="stop-color:#16213e"/>
    </linearGradient>
  </defs>

  <!-- Background -->
  <rect width="1200" height="630" fill="url(#bg)"/>

  <!-- Logo (scaled and centered) -->
  <g transform="translate(520, 140) scale(0.12)">
    <path fill="#b54025" d="M788.4527.0004c7.144.432 7.724-.314 246.328 107.16 15.422 6.948 13.566 9.888 66.416 108.374 88.068 164.112 88.224 163.834 95.752 178.156-11.906.546-168.776 49.492-177.214 56.58l-2.966-6.48c4.102-5.846 6.182-17.544 12.498-113.776 1.222-18.626 20.206-199.116 14.012-211.612-1.502-11.054-6.186-3.722-16.98-.918-18.686 4.858-212.43 55.208-231.898 66.822-12.29 3.084-11.664 4.73-137.822 78.052l-2.056.462c-9.626-11.804-107.366-131.664-114.846-151.852l2.666-1.212c14.16 11.61 15.972 8.342 178.088 54.19 49.748 14.07 71.336 23.222 71.23 14.022-1.206-102.906 3.044-166.342-3.208-177.968Z"/>
    <path fill="#ec5d42" d="M1196.9487 393.6904c43.136 63.124 126.546 191.906 131.968 195.32 2.074 1.306 1.928 1.196 26.036 16.156-1.718.486-.94 3.006-4.52 1.276-14.082-6.804-27.872 6.194-23.18-8.736 6.762-21.516-39.5 22.72-65.14 43.79-110.342 90.672-108.862 92.502-128.022 104.942-3.554-5.23-2.814-5.23-114.356-296.168 8.438-7.088 165.308-56.034 177.214-56.58ZM386.0487 393.7604c10.4-.804 166.028 48.378 177.222 56.726-103.664 272.982-101.464 274.008-114.592 295.72-35.462-26.986-186.538-151.126-190.75-160.792 42.706-63.884 85.414-127.77 128.12-191.654Z"/>
    <path fill="#b53f26" d="M257.9287 585.4144c4.212 9.666 155.288 133.806 190.75 160.792-6.486 1.668-448.636 1.934-448.678-.182-.074-3.624 245.16-148.986 257.928-160.61Z"/>
    <path fill="#b54026" d="M1354.9527 605.1664c97.536 60.322 97.894 59.012 195.07 119.388 7.802 4.846 40.244 23.088 32.268 22.974-96.314-1.372-436.964.954-448.2-1.09 19.16-12.44 17.68-14.27 128.022-104.942 25.64-21.07 71.902-65.306 65.14-43.79-4.692 14.93 9.098 1.932 23.18 8.736 3.58 1.73 2.802-.79 4.52-1.276Z"/>
    <path fill="#b34025" d="M535.9987 113.5164c2.27 13.494.842 13.556 14.428 170.426 12.95 149.514 10.188 150.932 16.768 158.2-1.308 2.782-2.616 5.562-3.924 8.344-11.194-8.348-166.822-57.53-177.222-56.726 73.972-140.702 75.804-139.392 149.95-280.244Z"/>
    <path fill="#ee5c43" d="M788.4527.0004c6.252 11.626 2.002 75.062 3.208 177.968.106 9.2-21.482.048-71.23-14.022-162.116-45.848-163.928-42.58-178.088-54.19 236.544-105.678 236.29-105.71 246.11-109.756Z"/>
    <path fill="#ed5c42" d="M1043.2787 118.4024c6.194 12.496-12.79 192.986-14.012 211.612-6.316 96.232-8.396 107.93-12.498 113.776-69.454-141.85-81.612-165.334-88.984-179.57 40.324-50.272 87.426-116.738 115.494-145.818Z"/>
    <path fill="#f5926e" d="M539.6767 110.9684c7.48 20.188 105.22 140.048 114.846 151.852l-.076 1.148c-22.72 47.906-22.896 47.442-87.252 178.174-6.58-7.268-3.818-8.686-16.768-158.2-13.586-156.87-12.158-156.932-14.428-170.426 1.226-.85 2.452-1.7 3.678-2.548Z"/>
    <path fill="#f59371" d="M1043.2787 118.4024c-28.068 29.08-75.17 95.546-115.494 145.818-12.72-10.276-123.586-70.494-133.384-79.914 19.468-11.614 213.212-61.964 231.898-66.822 10.794-2.804 15.478-10.136 16.98.918Z"/>
    <path fill="#d29b88" d="m654.5227 262.8204 2.056-.462-2.132 1.61.076-1.148Z"/>
  </g>

  <!-- Title -->
  <text x="600" y="340" text-anchor="middle" font-family="system-ui, -apple-system, sans-serif" font-size="56" font-weight="700" fill="#ffffff">Pest Bridge Plugin</text>

  <!-- Tagline -->
  <text x="600" y="400" text-anchor="middle" font-family="system-ui, -apple-system, sans-serif" font-size="24" fill="#a0a0a0">Test External Frontends from Laravel</text>

  <!-- Tech badges -->
  <text x="600" y="460" text-anchor="middle" font-family="system-ui, -apple-system, sans-serif" font-size="20" fill="#ec5d42">Vue · React · Nuxt · Next.js</text>

  <!-- URL -->
  <text x="600" y="580" text-anchor="middle" font-family="system-ui, -apple-system, sans-serif" font-size="18" fill="#666666">bridge.testflowlabs.dev</text>
</svg>
